<svg version="1.1" xmlns="http://www.w3.org/2000/svg" viewBox="-0.9 -0.9 1.8 1.8">
	<g style="stroke-width:0.1;stroke-linejoin:round;opacity:1">
		<polygon fill="#000000" stroke="#000000" points="-4.9165444344952E-17,-0.71734170954349 0.70405037145575,-0.41272706360467 6.3108540577985E-17,-0.021725090572532 -0.70405037145575,-0.41272706360467"/>
		<polygon fill="#000000" stroke="#000000" points="6.3108540577985E-17,-0.021725090572532 0.70405037145575,-0.41272706360467 0.62948028357061,0.36901272915735 5.5589468959362E-17,0.81107056444244"/>
		<polygon fill="#000000" stroke="#000000" points="-0.70405037145575,-0.41272706360467 6.3108540577985E-17,-0.021725090572532 5.5589468959362E-17,0.81107056444244 -0.62948028357061,0.36901272915735"/>
	</g>
	<g style="opacity:1;stroke-opacity:0.5;stroke-width:0;stroke-linejoin:round">
		<polygon fill="#FEFE00" stroke="#000000" points="-5.2415077551744E-17,-0.75757110153226 0.071780194552488,-0.72651466092018 -5.3677762241594E-17,-0.6945761655367 -0.071780194552488,-0.72651466092018"/>
		<polygon fill="#FEFE00" stroke="#000000" points="0.08462976229891,-0.72087509240559 0.15844863423523,-0.6889365970221 0.086697807653382,-0.6560779278021 0.012849567746422,-0.6889365970221"/>
		<polygon fill="#FEFE00" stroke="#000000" points="0.17166856099006,-0.68313444824938 0.24761421422214,-0.65027577902938 0.17592469902674,-0.61645658832203 0.099917734408221,-0.65027577902938"/>
		<polygon fill="#FEFE00" stroke="#000000" points="0.26122074969406,-0.6443039152413 0.33938643902415,-0.61048472453395 0.26779298328172,-0.57566227082238 0.18953123449867,-0.61048472453395"/>
		<polygon fill="#FEFE00" stroke="#000000" points="0.35339679786315,-0.60433558720891 0.43388131099307,-0.56951313349735 0.36242171963264,-0.53364210118765 0.28180334212072,-0.56951313349735"/>
		<polygon fill="#FEFE00" stroke="#000000" points="0.4483137455115,-0.56317870840647 0.53122181956129,-0.52730767609677 0.45993723223,-0.4903399787784 0.37685415415107,-0.52730767609677"/>
		<polygon fill="#FEFE00" stroke="#000000" points="0.54609569913367,-0.52077945842665 0.63153847536214,-0.48381176110828 0.56047367290623,-0.44569632649 0.47481111180238,-0.48381176110828"/>
		<polygon fill="#FEFE00" stroke="#000000" points="0.64687437323067,-0.47708071733007 0.73496989410918,-0.43896528271178 0.66417363705634,-0.3996478172104 0.57580957077476,-0.43896528271178"/>
		<polygon fill="#FEFE00" stroke="#000000" points="-0.08462976229891,-0.72087509240559 -0.012849567746422,-0.6889365970221 -0.086697807653382,-0.6560779278021 -0.15844863423523,-0.6889365970221"/>
		<polygon fill="#FEFE00" stroke="#000000" points="-5.1831045013778E-17,-0.68313444824938 0.07384823990696,-0.65027577902938 -2.9638898408682E-17,-0.61645658832203 -0.07384823990696,-0.65027577902938"/>
		<polygon fill="#FEFE00" stroke="#000000" points="0.087073583231355,-0.6443039152413 0.16308054784988,-0.61048472453395 0.089264327760573,-0.57566227082238 0.013225343324395,-0.61048472453395"/>
		<polygon fill="#FEFE00" stroke="#000000" points="0.17669839893158,-0.60433558720891 0.25496014771463,-0.56951313349735 0.18121085981632,-0.53364210118765 0.10288217884227,-0.56951313349735"/>
		<polygon fill="#FEFE00" stroke="#000000" points="0.2689882473069,-0.56317870840647 0.34960662481882,-0.52730767609677 0.275962339338,-0.4903399787784 0.19523895940859,-0.52730767609677"/>
		<polygon fill="#FEFE00" stroke="#000000" points="0.36406379942245,-0.52077945842665 0.44714687750139,-0.48381176110828 0.37364911527082,-0.44569632649 0.29041951394163,-0.48381176110828"/>
		<polygon fill="#FEFE00" stroke="#000000" points="0.46205312373619,-0.47708071733007 0.54771568484004,-0.43896528271178 0.47440974075453,-0.3996478172104 0.38855536150563,-0.43896528271178"/>
		<polygon fill="#FEFE00" stroke="#000000" points="0.5630922618103,-0.43202180883665 0.65145632809188,-0.39270434333526 0.57839162895055,-0.35212707403536 0.48978631772479,-0.39270434333526"/>
		<polygon fill="#FEFE00" stroke="#000000" points="-0.17166856099006,-0.68313444824938 -0.099917734408221,-0.65027577902938 -0.17592469902674,-0.61645658832203 -0.24761421422214,-0.65027577902938"/>
		<polygon fill="#FEFE00" stroke="#000000" points="-0.087073583231355,-0.6443039152413 -0.013225343324395,-0.61048472453395 -0.089264327760573,-0.57566227082238 -0.16308054784988,-0.61048472453395"/>
		<polygon fill="#FEFE00" stroke="#000000" points="-2.6673996300667E-17,-0.60433558720891 0.076038984436178,-0.56951313349735 -1.5263919014931E-17,-0.53364210118765 -0.076038984436178,-0.56951313349735"/>
		<polygon fill="#FEFE00" stroke="#000000" points="0.089662749102301,-0.56317870840647 0.16799143007635,-0.52730767609677 0.091987446446001,-0.4903399787784 0.013623764666123,-0.52730767609677"/>
		<polygon fill="#FEFE00" stroke="#000000" points="0.18203189971122,-0.52077945842665 0.26275527964063,-0.48381176110828 0.18682455763541,-0.44569632649 0.10602791608088,-0.48381176110828"/>
		<polygon fill="#FEFE00" stroke="#000000" points="0.27723187424172,-0.47708071733007 0.36046147557091,-0.43896528271178 0.28464584445272,-0.3996478172104 0.2013011522365,-0.43896528271178"/>
		<polygon fill="#FEFE00" stroke="#000000" points="0.37539484120687,-0.43202180883665 0.46124922045576,-0.39270434333526 0.38559441930037,-0.35212707403536 0.29957921008868,-0.39270434333526"/>
		<polygon fill="#FEFE00" stroke="#000000" points="0.47666132760251,-0.38553821915033 0.56526663882827,-0.34496094985043 0.48982269486134,-0.30306234125599 0.40100652644711,-0.34496094985043"/>
		<polygon fill="#FEFE00" stroke="#000000" points="-0.26122074969406,-0.6443039152413 -0.18953123449867,-0.61048472453395 -0.26779298328172,-0.57566227082238 -0.33938643902415,-0.61048472453395"/>
		<polygon fill="#FEFE00" stroke="#000000" points="-0.17669839893158,-0.60433558720891 -0.10288217884227,-0.56951313349735 -0.18121085981632,-0.53364210118765 -0.25496014771463,-0.56951313349735"/>
		<polygon fill="#FEFE00" stroke="#000000" points="-0.089662749102301,-0.56317870840647 -0.013623764666123,-0.52730767609677 -0.091987446446001,-0.4903399787784 -0.16799143007635,-0.52730767609677"/>
		<polygon fill="#FEFE00" stroke="#000000" points="-1.318786142799E-17,-0.52077945842665 0.078363681779878,-0.48381176110828 -1.0692860617289E-18,-0.44569632649 -0.078363681779878,-0.48381176110828"/>
		<polygon fill="#FEFE00" stroke="#000000" points="0.092410624747239,-0.47708071733007 0.17320726630177,-0.43896528271178 0.094881948150905,-0.3996478172104 0.014046942967361,-0.43896528271178"/>
		<polygon fill="#FEFE00" stroke="#000000" points="0.18769742060343,-0.43202180883665 0.27104211281965,-0.39270434333526 0.19279720965018,-0.35212707403536 0.10937210245257,-0.39270434333526"/>
		<polygon fill="#FEFE00" stroke="#000000" points="0.28599679656151,-0.38553821915033 0.3720120057732,-0.34496094985043 0.2938936169168,-0.30306234125599 0.20775189339204,-0.34496094985043"/>
		<polygon fill="#FEFE00" stroke="#000000" points="0.38745392688412,-0.33756128867608 0.47627009529835,-0.29566268008164 0.39832876807317,-0.25237712273895 0.30933553802773,-0.29566268008164"/>
		<polygon fill="#FEFE00" stroke="#000000" points="-0.35339679786315,-0.60433558720891 -0.28180334212072,-0.56951313349735 -0.36242171963264,-0.53364210118765 -0.43388131099307,-0.56951313349735"/>
		<polygon fill="#FEFE00" stroke="#000000" points="-0.2689882473069,-0.56317870840647 -0.19523895940859,-0.52730767609677 -0.275962339338,-0.4903399787784 -0.34960662481882,-0.52730767609677"/>
		<polygon fill="#FEFE00" stroke="#000000" points="-0.18203189971122,-0.52077945842665 -0.10602791608088,-0.48381176110828 -0.18682455763541,-0.44569632649 -0.26275527964063,-0.48381176110828"/>
		<polygon fill="#FEFE00" stroke="#000000" points="-0.092410624747239,-0.47708071733007 -0.014046942967361,-0.43896528271178 -0.094881948150905,-0.3996478172104 -0.17320726630177,-0.43896528271178"/>
		<polygon fill="#FEFE00" stroke="#000000" points="1.1378098399068E-18,-0.43202180883665 0.080835005183544,-0.39270434333526 1.4032988025517E-17,-0.35212707403536 -0.080835005183544,-0.39270434333526"/>
		<polygon fill="#FEFE00" stroke="#000000" points="0.095332265520502,-0.38553821915033 0.17875737271812,-0.34496094985043 0.097964538972268,-0.30306234125599 0.014497260336958,-0.34496094985043"/>
		<polygon fill="#FEFE00" stroke="#000000" points="0.19372696344206,-0.33756128867608 0.27986868696683,-0.29566268008164 0.19916438403658,-0.25237712273895 0.11293412969621,-0.29566268008164"/>
		<polygon fill="#FEFE00" stroke="#000000" points="0.29533408001953,-0.2880178735302 0.38432731006497,-0.24473231618751 0.30376250816177,-0.19998978386563 0.21462977708928,-0.24473231618751"/>
		<polygon fill="#FEFE00" stroke="#000000" points="-0.4483137455115,-0.56317870840647 -0.37685415415107,-0.52730767609677 -0.45993723223,-0.4903399787784 -0.53122181956129,-0.52730767609677"/>
		<polygon fill="#FEFE00" stroke="#000000" points="-0.36406379942245,-0.52077945842665 -0.29041951394163,-0.48381176110828 -0.37364911527082,-0.44569632649 -0.44714687750139,-0.48381176110828"/>
		<polygon fill="#FEFE00" stroke="#000000" points="-0.27723187424172,-0.47708071733007 -0.2013011522365,-0.43896528271178 -0.28464584445272,-0.3996478172104 -0.36046147557091,-0.43896528271178"/>
		<polygon fill="#FEFE00" stroke="#000000" points="-0.18769742060343,-0.43202180883665 -0.10937210245257,-0.39270434333526 -0.19279720965018,-0.35212707403536 -0.27104211281965,-0.39270434333526"/>
		<polygon fill="#FEFE00" stroke="#000000" points="-0.095332265520502,-0.38553821915033 -0.014497260336958,-0.34496094985043 -0.097964538972268,-0.30306234125599 -0.17875737271812,-0.34496094985043"/>
		<polygon fill="#FEFE00" stroke="#000000" points="1.6383936408891E-17,-0.33756128867608 0.08346727863531,-0.29566268008164 3.0132839901517E-17,-0.25237712273895 -0.08346727863531,-0.29566268008164"/>
		<polygon fill="#FEFE00" stroke="#000000" points="0.098444693339843,-0.2880178735302 0.18467494768022,-0.24473231618751 0.10125416938726,-0.19998978386563 0.014977414704533,-0.24473231618751"/>
		<polygon fill="#FEFE00" stroke="#000000" points="0.20015677962366,-0.23682997333325 0.28928951069615,-0.19208744101136 0.20596650901599,-0.14581311267242 0.1167360013307,-0.19208744101136"/>
		<polygon fill="#FEFE00" stroke="#000000" points="-0.54609569913367,-0.52077945842665 -0.47481111180238,-0.48381176110828 -0.56047367290623,-0.44569632649 -0.63153847536214,-0.48381176110828"/>
		<polygon fill="#FEFE00" stroke="#000000" points="-0.46205312373619,-0.47708071733007 -0.38855536150563,-0.43896528271178 -0.47440974075453,-0.3996478172104 -0.54771568484004,-0.43896528271178"/>
		<polygon fill="#FEFE00" stroke="#000000" points="-0.37539484120687,-0.43202180883665 -0.29957921008868,-0.39270434333526 -0.38559441930037,-0.35212707403536 -0.46124922045576,-0.39270434333526"/>
		<polygon fill="#FEFE00" stroke="#000000" points="-0.28599679656151,-0.38553821915033 -0.20775189339204,-0.34496094985043 -0.2938936169168,-0.30306234125599 -0.3720120057732,-0.34496094985043"/>
		<polygon fill="#FEFE00" stroke="#000000" points="-0.19372696344206,-0.33756128867608 -0.11293412969621,-0.29566268008164 -0.19916438403658,-0.25237712273895 -0.27986868696683,-0.29566268008164"/>
		<polygon fill="#FEFE00" stroke="#000000" points="-0.098444693339843,-0.2880178735302 -0.014977414704533,-0.24473231618751 -0.10125416938726,-0.19998978386563 -0.18467494768022,-0.24473231618751"/>
		<polygon fill="#FEFE00" stroke="#000000" points="3.3857899986697E-17,-0.23682997333325 0.086276754682725,-0.19208744101136 6.2326344126113E-17,-0.14581311267242 -0.086276754682725,-0.19208744101136"/>
		<polygon fill="#FEFE00" stroke="#000000" points="0.10176722865277,-0.18391432130063 0.19099773633806,-0.13763999296168 0.10477242428112,-0.089753835228587 0.015490473970042,-0.13763999296168"/>
		<polygon fill="#FEFE00" stroke="#000000" points="-0.64687437323067,-0.47708071733007 -0.57580957077476,-0.43896528271178 -0.66417363705634,-0.3996478172104 -0.73496989410918,-0.43896528271178"/>
		<polygon fill="#FEFE00" stroke="#000000" points="-0.5630922618103,-0.43202180883665 -0.48978631772479,-0.39270434333526 -0.57839162895055,-0.35212707403536 -0.65145632809188,-0.39270434333526"/>
		<polygon fill="#FEFE00" stroke="#000000" points="-0.47666132760251,-0.38553821915033 -0.40100652644711,-0.34496094985043 -0.48982269486134,-0.30306234125599 -0.56526663882827,-0.34496094985043"/>
		<polygon fill="#FEFE00" stroke="#000000" points="-0.38745392688412,-0.33756128867608 -0.30933553802773,-0.29566268008164 -0.39832876807317,-0.25237712273895 -0.47627009529835,-0.29566268008164"/>
		<polygon fill="#FEFE00" stroke="#000000" points="-0.29533408001953,-0.2880178735302 -0.21462977708928,-0.24473231618751 -0.30376250816177,-0.19998978386563 -0.38432731006497,-0.24473231618751"/>
		<polygon fill="#FEFE00" stroke="#000000" points="-0.20015677962366,-0.23682997333325 -0.1167360013307,-0.19208744101136 -0.20596650901599,-0.14581311267242 -0.28928951069615,-0.19208744101136"/>
		<polygon fill="#FEFE00" stroke="#000000" points="-0.10176722865277,-0.18391432130063 -0.015490473970042,-0.13763999296168 -0.10477242428112,-0.089753835228587 -0.19099773633806,-0.13763999296168"/>
		<polygon fill="#FEFE00" stroke="#000000" points="6.5010651639919E-17,-0.12918193209827 0.08928195031108,-0.081295774365177 6.6964359323636E-17,-0.031712079585487 -0.08928195031108,-0.081295774365177"/>
		<polygon fill="#FFA100" stroke="#000000" points="0.007749082650125,-0.01830170396592 0.097031032961205,-0.067885398745611 0.095572019351541,0.036212700543046 0.007749082650125,0.086786424723287"/>
		<polygon fill="#FFA100" stroke="#000000" points="0.11239690112852,-0.076572499217301 0.19862221318545,-0.1244586569504 0.19580244310397,-0.021344510494777 0.11093788751885,0.027525600071356"/>
		<polygon fill="#FFA100" stroke="#000000" points="0.21347031554591,-0.13285312548753 0.29679331722607,-0.17912745382648 0.292703726826,-0.076990131386333 0.21065054546443,-0.029738979031911"/>
		<polygon fill="#FFA100" stroke="#000000" points="0.31114939673118,-0.18724383562511 0.39171419863437,-0.23198636794699 0.38643903904215,-0.13081784523044 0.30705980633111,-0.085106513184959"/>
		<polygon fill="#FFA100" stroke="#000000" points="0.4056023190719,-0.2398382597204 0.48354364629708,-0.28312381706308 0.47716105586847,-0.18291531144724 0.40032715947968,-0.13866973700384"/>
		<polygon fill="#FFA100" stroke="#000000" points="0.49698632703796,-0.29072394313267 0.57243027100489,-0.33262255172712 0.56501279111415,-0.23336464229612 0.49060373660935,-0.19051543751682"/>
		<polygon fill="#FFA100" stroke="#000000" points="0.5854486089765,-0.33998283290207 0.65851330811783,-0.38056010220198 0.65012834879703,-0.2822428348595 0.57803112908576,-0.24072492347108"/>
		<polygon fill="#FFA100" stroke="#000000" points="0.67112708839473,-0.38769171823288 0.74192334544757,-0.42700918373427 0.73263360640419,-0.3296221632741 0.66274212907394,-0.28937445089041"/>
		<polygon fill="#FFA100" stroke="#000000" points="0.0076244860339946,0.10494865987442 0.095447422735411,0.054374935694181 0.094035327752599,0.15512547205117 0.0076244860339946,0.20659944882763"/>
		<polygon fill="#FFA100" stroke="#000000" points="0.11056821611106,0.045521302224448 0.19543277169618,-0.0033488083416852 0.19270217601752,0.096504383438033 0.10915612112825,0.14627183858144"/>
		<polygon fill="#FFA100" stroke="#000000" points="0.21005212158465,-0.011908913485384 0.29210530294622,-0.059160065839806 0.28814293572354,0.03979986389855 0.20732152590599,0.087944278294335"/>
		<polygon fill="#FFA100" stroke="#000000" points="0.30624775239747,-0.06744100547617 0.38562698510851,-0.11315233752165 0.38051329759401,-0.015080572595516 0.30228538517479,0.031518924262186"/>
		<polygon fill="#FFA100" stroke="#000000" points="0.39931550082561,-0.12116755222055 0.4761493972144,-0.16541312666394 0.46995909206049,-0.068223555169794 0.3942018133111,-0.023095787294415"/>
		<polygon fill="#FFA100" stroke="#000000" points="0.48940549413969,-0.17317520761717 0.56381454864449,-0.21602441239647 0.55661705775032,-0.11971031248295 0.48321518898578,-0.075985636123028"/>
		<polygon fill="#FFA100" stroke="#000000" points="0.576658402911,-0.22354516748507 0.64875562262228,-0.26506307887349 0.64061553919912,-0.16961708712967 0.56946091201683,-0.12723106757154"/>
		<polygon fill="#FFA100" stroke="#000000" points="0.66120617411881,-0.27235359266141 0.73109765144905,-0.3126013050451 0.72207512127835,-0.21801551245891 0.65306609069565,-0.17690760091758"/>
		<polygon fill="#FFA100" stroke="#000000" points="0.0075038327628306,0.2241770384485 0.093914674481435,0.17270306167205 0.092547270741577,0.2702649550887 0.0075038327628306,0.32255642239019"/>
		<polygon fill="#FFA100" stroke="#000000" points="0.10879809048862,0.16369787290138 0.19234414537789,0.11393041775797 0.18969855977825,0.21067493702692 0.10743068674876,0.26125976631803"/>
		<polygon fill="#FFA100" stroke="#000000" points="0.20674168012835,0.10521913649628 0.2875630899459,0.057074722100498 0.28372210014464,0.15300325660953 0.20409609452871,0.20196365576523"/>
		<polygon fill="#FFA100" stroke="#000000" points="0.30149816003969,0.048643187261115 0.37972607245891,0.0020436904034127 0.37476655481713,0.097158741319582 0.29765717023843,0.14457172177014"/>
		<polygon fill="#FFA100" stroke="#000000" points="0.39322061321311,-0.006121363519406 0.46897789196249,-0.051249131394785 0.46297131169968,0.04305590646252 0.38826109557133,0.088993687396763"/>
		<polygon fill="#FFA100" stroke="#000000" points="0.48205247274262,-0.059160144038284 0.55545434150716,-0.1028848203982 0.54846719590516,-0.0093854815985868 0.47604589247981,0.035144893819021"/>
		<polygon fill="#FFA100" stroke="#000000" points="0.5681282704459,-0.11055346883024 0.63928289762819,-0.15293948838836 0.63137711738519,-0.060240802567037 0.56114112484391,-0.017054130030617"/>
		<polygon fill="#FFA100" stroke="#000000" points="0.65157431685389,-0.16037674467122 0.72058334743659,-0.20148465621254 0.71181666065319,-0.10958094383094 0.64366853661089,-0.067678058849905"/>
		<polygon fill="#FFA100" stroke="#000000" points="0.0073869385491269,0.33957715637506 0.092430376527873,0.28728568907358 0.09110557543923,0.3818079569605 0.0073869385491269,0.4348405586902"/>
		<polygon fill="#FFA100" stroke="#000000" points="0.10708375543104,0.27814276801034 0.18935162846053,0.22755793871923 0.18678714393285,0.3213367311487 0.1057589543424,0.37266503589726"/>
		<polygon fill="#FFA100" stroke="#000000" points="0.20353397473484,0.21870884809476 0.28315998035077,0.16974844893905 0.27943487495318,0.26278277607134 0.20096949020716,0.31248764052423"/>
		<polygon fill="#FFA100" stroke="#000000" points="0.29689365206079,0.16117924498041 0.37400303663949,0.11376626452985 0.36919082042748,0.20605632640385 0.2931685466632,0.25421357211271"/>
		<polygon fill="#FFA100" stroke="#000000" points="0.38730899856906,0.10546387219792 0.46201921469742,0.059526091263673 0.45618829964684,0.15107313476057 0.38249678235706,0.19775393407192"/>
		<polygon fill="#FFA100" stroke="#000000" points="0.47491714523944,0.051478237620348 0.54733844866479,0.0069478622027394 0.54055256020343,0.097754054093798 0.46908623018887,0.14302528111724"/>
		<polygon fill="#FFA100" stroke="#000000" points="0.55984683701714,-0.00085698418021281 0.63008282955842,-0.044043656716633 0.62240137979039,0.046024657454995 0.55306094855578,0.089949207710846"/>
		<polygon fill="#FFA100" stroke="#000000" points="0.64221906423666,-0.051616340936852 0.71036718827896,-0.09351922591789 0.70184561494737,-0.0041851087246096 0.63453761446862,0.038451973234777"/>
		<polygon fill="#FFA100" stroke="#000000" points="0.0072736304125098,0.45133049271783 0.090992267302613,0.39829789098813 0.089708108420953,0.48992040765285 0.0072736304125098,0.5436236447935"/>
		<polygon fill="#FFA100" stroke="#000000" points="0.10542261397419,0.38903000478406 0.18645080356465,0.3377017000355 0.18396374714699,0.42864907953236 0.10413845509253,0.48065252144878"/>
		<polygon fill="#FFA100" stroke="#000000" points="0.20042429561792,0.32872716508469 0.27888968036394,0.2790223006318 0.2752752928802,0.36929145322085 0.19793723920026,0.41967454458154"/>
		<polygon fill="#FFA100" stroke="#000000" points="0.29242768019875,0.27032740282754 0.36844995396303,0.22217015711869 0.36377857276352,0.31175924475456 0.28881329271501,0.36059655541659"/>
		<polygon fill="#FFA100" stroke="#000000" points="0.38157251225954,0.21374202426809 0.45526402954932,0.16706122495675 0.44960118465611,0.25596951863945 0.37690113106002,0.30333111190397"/>
		<polygon fill="#FFA100" stroke="#000000" points="0.46798998444705,0.15888776313675 0.53945631446161,0.11361653611331 0.53286311110493,0.20184428883753 0.46232713955384,0.24779605681945"/>
		<polygon fill="#FFA100" stroke="#000000" points="0.55180338187201,0.10568637171526 0.62114381310662,0.061761821459414 0.61367727915202,0.14931015495176 0.54521017851533,0.19391412443949"/>
		<polygon fill="#FFA100" stroke="#000000" points="0.63312866907051,0.054064248337641 0.70043666954925,0.011427166378254 0.69215007147196,0.098297970039079 0.6256621351159,0.14161258182999"/>
		<polygon fill="#FFA100" stroke="#000000" points="0.0071637458256403,0.55960723356044 0.089598223834084,0.50590399641978 0.088352865182896,0.5947581837027 0.0071637458256403,0.64906691866435"/>
		<polygon fill="#FFA100" stroke="#000000" points="0.1038122278874,0.49652294561503 0.18363751994186,0.44451950369861 0.18122443716539,0.53276179425144 0.10256686923622,0.58537713289795"/>
		<polygon fill="#FFA100" stroke="#000000" points="0.19740821656583,0.43543097097368 0.27474627024577,0.38504787961299 0.27123773680653,0.47267333256034 0.19499513378936,0.52367326152651"/>
		<polygon fill="#FFA100" stroke="#000000" points="0.28809408444567,0.37623839011732 0.36305936449418,0.3274010794553 0.35852272492542,0.41440605347454 0.28458555100644,0.46386384306468"/>
		<polygon fill="#FFA100" stroke="#000000" points="0.37600348523313,0.31885797362545 0.44870353882923,0.27149638036093 0.44320160065737,0.35787839223511 0.37146684566438,0.4058629476447"/>
		<polygon fill="#FFA100" stroke="#000000" points="0.46126201115468,0.26320775316596 0.53179798270578,0.21725598518404 0.52538937240859,0.30301358342843 0.45576007298283,0.34958976504015"/>
		<polygon fill="#FFA100" stroke="#000000" points="0.54398779175559,0.20921063072519 0.61245489239228,0.16460666123747 0.60519437913857,0.24973931308452 0.53757918145841,0.29496822896958"/>
		<polygon fill="#FFA100" stroke="#000000" points="0.62429204010349,0.15679402215926 0.69077997645955,0.11347941036835 0.68271876694009,0.19798740060775 0.61703152684978,0.24192667400632"/>
		<polygon fill="#FFA100" stroke="#000000" points="0.0070571319363809,0.66456713701825 0.088246251293637,0.6102584020566 0.087037960548697,0.69646785829691 0.0070571319363809,0.75132186670015"/>
		<polygon fill="#FFA100" stroke="#000000" points="0.10225030572702,0.60077510128401 0.18090787365619,0.5481597626375 0.17856551253646,0.63381588372988 0.10104201498208,0.68698455752431"/>
		<polygon fill="#FFA100" stroke="#000000" points="0.19448157391372,0.53896783560404 0.27072417693089,0.48796790663787 0.26731691445007,0.573064122297 0.19213921279399,0.62462395669642"/>
		<polygon fill="#FFA100" stroke="#000000" points="0.28388706469109,0.47905412497737 0.35782423861007,0.42959633538723 0.35341659380865,0.5141274107837 0.28047980221027,0.5641503406365"/>
		<polygon fill="#FFA100" stroke="#000000" points="0.37059468980549,0.42094825971996 0.44232944479848,0.37296370431038 0.43698165129981,0.45692560047741 0.36618704500407,0.50547933511642"/>
		<polygon fill="#FFA100" stroke="#000000" points="0.45472475528314,0.3645696262729 0.5243540547089,0.31799344466118 0.51812239228428,0.40138319342475 0.44937696178447,0.44853152243993"/>
		<polygon fill="#FFA100" stroke="#000000" points="0.53639051847914,0.30984233397445 0.6040057161593,0.26461341808939 0.59694281269148,0.34742900990012 0.53015885605452,0.39323208273802"/>
		<polygon fill="#FFA100" stroke="#000000" points="0.61569869687255,0.25669487416128 0.68138593696287,0.21275560076271 0.67354104380805,0.29499588400518 0.60863579340473,0.33951046597201"/>
		<polygon fill="#FFA100" stroke="#000000" points="0.0069536448584015,0.76636031993637 0.086934473470717,0.71150631153313 0.085761619920284,0.7951873851951 0.0069536448584015,0.85053094998707"/>
		<polygon fill="#FFA100" stroke="#000000" points="0.10073469195299,0.70193086260104 0.17825818950738,0.64876218880661 0.17598348592272,0.73194419010255 0.099561838402561,0.78561193626301"/>
		<polygon fill="#FFA100" stroke="#000000" points="0.19164044736003,0.6394766962345 0.26681814901611,0.58791686183508 0.26350783521767,0.67059178884097 0.18936574377537,0.72265869753044"/>
		<polygon fill="#FFA100" stroke="#000000" points="0.27980115481495,0.5789083489525 0.35273794641333,0.5288854190997 0.3484538717472,0.61104663102183 0.27649084101651,0.66158327595838"/>
		<polygon fill="#FFA100" stroke="#000000" points="0.36533930835591,0.520141672353 0.43613391465165,0.47158793771399 0.43093387744057,0.55323001766538 0.36105523368978,0.60230288427514"/>
		<polygon fill="#FFA100" stroke="#000000" points="0.44837022030169,0.46309745137249 0.5171156508015,0.41594912235731 0.51105370749531,0.4970677540926 0.44317018309061,0.54473953132389"/>
		<polygon fill="#FFA100" stroke="#000000" points="0.52900253999618,0.40770104795941 0.59578649663314,0.36189797512151 0.58891324372997,0.44248983220036 0.52294059669,0.4888196796947"/>
		<polygon fill="#FFA100" stroke="#000000" points="0.60733872822766,0.35388207519339 0.67224397863098,0.30936749322655 0.66460681009209,0.38943013925806 0.60046547532449,0.43447393227223"/>
		<polygon fill="#00D800" stroke="#000000" points="-0.7420031789525,-0.42692710312701 -0.67120692189966,-0.38760963762562 -0.66282196257887,-0.28929237028315 -0.73271343990912,-0.32954008266684"/>
		<polygon fill="#00D800" stroke="#000000" points="-0.65859867394989,-0.38047710437064 -0.58553397480856,-0.33989983507073 -0.57811649491782,-0.24064192563974 -0.6502137146291,-0.28215983702816"/>
		<polygon fill="#00D800" stroke="#000000" points="-0.57252158478096,-0.33253867559316 -0.49707764081403,-0.29064006699871 -0.49069505038542,-0.19043156138287 -0.56510410489022,-0.23328076616216"/>
		<polygon fill="#00D800" stroke="#000000" points="-0.48364136078264,-0.28303910967185 -0.40570003355746,-0.23975355232916 -0.40042487396524,-0.1385850296126 -0.47725877035403,-0.182830604056"/>
		<polygon fill="#00D800" stroke="#000000" points="-0.39181880768074,-0.23190088561844 -0.31125400577754,-0.18715835329655 -0.30716441537747,-0.085021030856407 -0.38654364808852,-0.13073236290188"/>
		<polygon fill="#00D800" stroke="#000000" points="-0.29690536019536,-0.17904126347217 -0.2135823585152,-0.13276693513322 -0.21076258843372,-0.029652788677605 -0.29281576979529,-0.076903941032027"/>
		<polygon fill="#00D800" stroke="#000000" points="-0.19874227993297,-0.12437183758278 -0.11251696787603,-0.07648567984968 -0.11105795426637,0.027612419438977 -0.19592250985149,-0.021257691127156"/>
		<polygon fill="#00D800" stroke="#000000" points="-0.097159769456175,-0.067798043210268 -0.0078778191450952,-0.018214348430578 -0.0078778191450952,0.08687378025863 -0.095700755846512,0.036300056078389"/>
		<polygon fill="#00D800" stroke="#000000" points="-0.73117551439737,-0.31252540511942 -0.66128403706712,-0.27227769273574 -0.65314395364396,-0.17683170099191 -0.72215298422666,-0.21793961253323"/>
		<polygon fill="#00D800" stroke="#000000" points="-0.64883879255131,-0.26498648109381 -0.57674157284003,-0.22346856970539 -0.56954408194586,-0.12715446979187 -0.64069870912815,-0.16954048934999"/>
		<polygon fill="#00D800" stroke="#000000" points="-0.56390341797451,-0.21594716490406 -0.48949436346972,-0.17309796012477 -0.48330405831581,-0.07590838863062 -0.55670592708035,-0.11963306499054"/>
		<polygon fill="#00D800" stroke="#000000" points="-0.47624439288846,-0.165335286067 -0.39941049649967,-0.12108971162361 -0.39429680898517,-0.023017946697475 -0.47005408773455,-0.068145714572854"/>
		<polygon fill="#00D800" stroke="#000000" points="-0.38572857219308,-0.11307397003822 -0.30634933948204,-0.067362637992738 -0.30238697225936,0.031597291745618 -0.38061488467858,-0.015002205112084"/>
		<polygon fill="#00D800" stroke="#000000" points="-0.2922139886707,-0.059081248600862 -0.21016080730912,-0.01183009624644 -0.20743021163046,0.088023095533279 -0.28825162144801,0.039878681137494"/>
		<polygon fill="#00D800" stroke="#000000" points="-0.19554910999287,-0.0032696308789844 -0.11068455440775,0.045600479687148 -0.10927245942494,0.14635101604414 -0.19281851431421,0.096583560900734"/>
		<polygon fill="#00D800" stroke="#000000" points="-0.095572019351541,0.054454369746789 -0.0077490826501249,0.10502809392703 -0.0077490826501249,0.20667888288024 -0.09415992436873,0.15520490610378"/>
		<polygon fill="#00D800" stroke="#000000" points="-0.72065930977839,-0.20141451149728 -0.65165027919569,-0.16030659995595 -0.64374449895269,-0.067607914134635 -0.71189262299499,-0.10951079911567"/>
		<polygon fill="#00D800" stroke="#000000" points="-0.63936395362593,-0.15286884253733 -0.56820932644364,-0.11048282297921 -0.56122218084164,-0.016983484179591 -0.63145817338292,-0.060170156716011"/>
		<polygon fill="#00D800" stroke="#000000" points="-0.55554086197826,-0.10281372930488 -0.48213899321372,-0.059089052944959 -0.47613241295091,0.035215984912347 -0.54855371637626,-0.0093143905052614"/>
		<polygon fill="#00D800" stroke="#000000" points="-0.46907027984082,-0.051177659654297 -0.39331300109143,-0.0060498917789179 -0.38835348344966,0.089065159137251 -0.46306369957801,0.043127378203008"/>
		<polygon fill="#00D800" stroke="#000000" points="-0.3798247660919,0.0021154683674886 -0.30159685367268,0.048714965225191 -0.29775586387142,0.14464349973422 -0.37486524845012,0.097230519283658"/>
		<polygon fill="#00D800" stroke="#000000" points="-0.28766856678722,0.057146720755786 -0.20684715696967,0.10529113515157 -0.20420157137003,0.20203565442052 -0.28382757698596,0.15307525526481"/>
		<polygon fill="#00D800" stroke="#000000" points="-0.19245692613022,0.1140025390063 -0.10891087124095,0.1637699941497 -0.1075434675011,0.26133188756636 -0.18981134053059,0.21074705827525"/>
		<polygon fill="#00D800" stroke="#000000" points="-0.094035327752599,0.17277519318896 -0.0076244860339945,0.22424916996542 -0.0076244860339945,0.3226285539071 -0.092667924012741,0.27033708660562"/>
		<polygon fill="#00D800" stroke="#000000" points="-0.71044131682868,-0.093454443831566 -0.64229319278638,-0.051551558850527 -0.63461174301835,0.038516755321102 -0.70191974349709,-0.0041203266382847"/>
		<polygon fill="#00D800" stroke="#000000" points="-0.63016184967371,-0.043978549859037 -0.55992585713243,-0.00079187732261601 -0.55313996867107,0.090014314568442 -0.62248039990568,0.046089764312592"/>
		<polygon fill="#00D800" stroke="#000000" points="-0.54742271102457,0.007013231462078 -0.47500140759921,0.051543606879686 -0.46917049254864,0.14309065037658 -0.5406368225632,0.097819423353136"/>
		<polygon fill="#00D800" stroke="#000000" points="-0.46210909988905,0.059591651708712 -0.3873988837607,0.10552943264295 -0.38258666754869,0.19781949451695 -0.45627818483848,0.15113869520561"/>
		<polygon fill="#00D800" stroke="#000000" points="-0.37409895818194,0.11383193499382 -0.29698957360324,0.16124491544438 -0.29326446820565,0.25427924257667 -0.36928674196993,0.20612199686782"/>
		<polygon fill="#00D800" stroke="#000000" points="-0.28326238807458,0.16981413705351 -0.20363638245866,0.21877453620921 -0.20107189793098,0.31255332863869 -0.279537282677,0.2628484641858"/>
		<polygon fill="#00D800" stroke="#000000" points="-0.18946101229339,0.22762353949488 -0.10719313926389,0.278208368786 -0.10586833817525,0.37273063667292 -0.18689652776571,0.32140233192436"/>
		<polygon fill="#00D800" stroke="#000000" points="-0.092547270741577,0.28735108328783 -0.0075038327628305,0.33964255058932 -0.0075038327628305,0.43490595290445 -0.091222469652934,0.38187335117475"/>
		<polygon fill="#00D800" stroke="#000000" points="-0.70050902814831,0.011486948422212 -0.63320102766957,0.054124030381599 -0.62573449371496,0.14167236387395 -0.69222243007102,0.098357752083037"/>
		<polygon fill="#00D800" stroke="#000000" points="-0.62122087168879,0.061821770215167 -0.55188044045418,0.10574632047102 -0.5452872370975,0.19397407319524 -0.61375433773419,0.14937010370752"/>
		<polygon fill="#00D800" stroke="#000000" points="-0.53953840491427,0.11367658384494 -0.46807207489971,0.15894781086838 -0.46240923000649,0.24785610455108 -0.53294520155759,0.20190433656916"/>
		<polygon fill="#00D800" stroke="#000000" points="-0.45535151163994,0.16712129501144 -0.38165999435016,0.21380209432279 -0.37698861315064,0.30339118195866 -0.44968866674673,0.25602958869414"/>
		<polygon fill="#00D800" stroke="#000000" points="-0.36854321811442,0.22223016284985 -0.29252094435014,0.27038740855871 -0.2889065568664,0.36065656114776 -0.36387183691491,0.31181925048573"/>
		<polygon fill="#00D800" stroke="#000000" points="-0.27898915075212,0.27908214418249 -0.20052376600611,0.32878700863538 -0.19803670958844,0.41973438813223 -0.27537476326838,0.36935129677154"/>
		<polygon fill="#00D800" stroke="#000000" points="-0.18655694158253,0.33776127096208 -0.10552875199207,0.38908957571064 -0.10424459311041,0.48071209237535 -0.18406988516487,0.42870865045894"/>
		<polygon fill="#00D800" stroke="#000000" points="-0.09110557543923,0.39835706470086 -0.0073869385491267,0.45138966643056 -0.0073869385491267,0.54368281850623 -0.08982141655757,0.48997958136558"/>
		<polygon fill="#00D800" stroke="#000000" points="-0.69085062613005,0.11353452756903 -0.62436268977399,0.15684913935994 -0.61710217652028,0.241981791207 -0.6827894166106,0.19804251780843"/>
		<polygon fill="#00D800" stroke="#000000" points="-0.61253006030021,0.16466180356664 -0.54406295966352,0.20926577305437 -0.53765434936634,0.29502337129876 -0.6052695470465,0.2497944554137"/>
		<polygon fill="#00D800" stroke="#000000" points="-0.53187798318742,0.21731108050432 -0.46134201163633,0.26326284848624 -0.45584007346448,0.34964486036043 -0.52546937289024,0.30306867874871"/>
		<polygon fill="#00D800" stroke="#000000" points="-0.44878871223538,0.27155134760902 -0.37608865863929,0.31891294087354 -0.37155201907053,0.40591791489279 -0.44328677406353,0.35793335948321"/>
		<polygon fill="#00D800" stroke="#000000" points="-0.3631500797409,0.32745582759601 -0.28818479969239,0.37629313825804 -0.28467626625316,0.46391859120539 -0.35861344017214,0.41446080161526"/>
		<polygon fill="#00D800" stroke="#000000" points="-0.27484292765719,0.38510230646053 -0.19750487397725,0.43548539782122 -0.19509179120078,0.52372768837405 -0.27133439421795,0.47272775940788"/>
		<polygon fill="#00D800" stroke="#000000" points="-0.1837405544235,0.44457349458656 -0.10391526236905,0.49657693650298 -0.10266990371786,0.5854311237859 -0.18132747164704,0.53281578513939"/>
		<polygon fill="#00D800" stroke="#000000" points="-0.089708108420953,0.50595742269811 -0.0072736304125097,0.55966065983876 -0.0072736304125097,0.64912034494267 -0.088462749769765,0.59481160998102"/>
		<polygon fill="#00D800" stroke="#000000" points="-0.6814549360529,0.21280636328344 -0.61576769596258,0.25674563668201 -0.60870479249475,0.33956122849274 -0.67361004289808,0.29504664652591"/>
		<polygon fill="#00D800" stroke="#000000" points="-0.60407906095723,0.26466407899699 -0.53646386327707,0.30989299488205 -0.53023220085245,0.39328274364562 -0.59701615748941,0.34747967080772"/>
		<polygon fill="#00D800" stroke="#000000" points="-0.52443204314355,0.3180439282556 -0.45480274371778,0.36462010986732 -0.44945495021911,0.44858200603436 -0.51820038071892,0.40143367701917"/>
		<polygon fill="#00D800" stroke="#000000" points="-0.4424123990953,0.37301392600709 -0.3706776441023,0.42099848141667 -0.36626999930089,0.50552955681314 -0.43706460559663,0.45697582217413"/>
		<polygon fill="#00D800" stroke="#000000" points="-0.35791250763836,0.42964620070453 -0.28397533371937,0.47910399029466 -0.28056807123855,0.5642002059538 -0.35350486283694,0.514177276101"/>
		<polygon fill="#00D800" stroke="#000000" points="-0.27081813881569,0.48801731005845 -0.19457553579852,0.53901723902462 -0.19223317467879,0.624673360117 -0.26741087633487,0.57311352571758"/>
		<polygon fill="#00D800" stroke="#000000" points="-0.18100793868926,0.54820858632702 -0.10235037076009,0.60082392497353 -0.10114208001515,0.68703338121384 -0.17866557756953,0.6338647074194"/>
		<polygon fill="#00D800" stroke="#000000" points="-0.088352865182896,0.61030651441909 -0.0071637458256401,0.66461524938074 -0.0071637458256401,0.75136997906264 -0.087144574437956,0.6965159706594"/>
		<polygon fill="#00D800" stroke="#000000" points="-0.67231138295178,0.30941418831897 -0.60740613254846,0.3539287702858 -0.60053287964529,0.43452062736465 -0.66467421441289,0.38947683435047"/>
		<polygon fill="#00D800" stroke="#000000" points="-0.59585808277405,0.36194445523825 -0.52907412613709,0.40774752807615 -0.52301218283091,0.48886615981144 -0.58898482987088,0.4425363123171"/>
		<polygon fill="#00D800" stroke="#000000" points="-0.5171917013393,0.41599530896461 -0.44844627083949,0.46314363797979 -0.44324623362841,0.54478571793119 -0.51112975803311,0.4971139406999"/>
		<polygon fill="#00D800" stroke="#000000" points="-0.43621473487621,0.47163374347611 -0.36542012858046,0.52018747811512 -0.36113605391433,0.60234869003726 -0.43101469766512,0.55327582342751"/>
		<polygon fill="#00D800" stroke="#000000" points="-0.35282386648989,0.5289307469012 -0.27988707489151,0.57895367675401 -0.27657676109307,0.66162860375989 -0.34853979182376,0.61109195882334"/>
		<polygon fill="#00D800" stroke="#000000" points="-0.26690952638792,0.58796160368421 -0.19173182473183,0.63952143808362 -0.18945712114717,0.72270343937956 -0.26359921258948,0.67063653069009"/>
		<polygon fill="#00D800" stroke="#000000" points="-0.17835541156922,0.64880622460361 -0.10083191401484,0.70197489839804 -0.099659060464405,0.78565597206001 -0.17608070798456,0.73198822589955"/>
		<polygon fill="#00D800" stroke="#000000" points="-0.087037960548697,0.71154950768508 -0.0070571319363808,0.76640351608832 -0.0070571319363808,0.85057414613902 -0.085865106998263,0.79523058134705"/>
	</g>
</svg>